# xmcd
#
# Track frame offsets: 
#        150
#        19665
#        40761
#        62883
#        81999
#        102536
#        121098
#        144815
#        166742
#        188813
#        207624
#        229399
#
# Disc length: 3308 seconds
#
# Revision: 6
# Processed by: cddbd v1.5.2PL0 Copyright (c) Steve Scherf et al.
# Submitted via: ExactAudioCopyFreeDBPlugin 1.0
#
DISCID=a10cea0c
DTITLE=Diana Ross - 1995 - Take Me Higher
DYEAR=1995
DGENRE=R&B
TTITLE0=Take Me Higher
TTITLE1=If You're Not Gonna Love Me Right
TTITLE2=I Never Loved A Man Before
TTITLE3=Swing It
TTITLE4=Keep It Right There
TTITLE5=Don't Stop
TTITLE6=Gone
TTITLE7=I Thought That We Were Still In Love
TTITLE8=Voice Of The Heart
TTITLE9=Only Love Can Conquer All
TTITLE10=I Will Survive
TTITLE11=If We Hold On Together
EXTD=
EXTT0=
EXTT1=
EXTT2=
EXTT3=
EXTT4=
EXTT5=
EXTT6=
EXTT7=
EXTT8=
EXTT9=
EXTT10=
EXTT11=
PLAYORDER=
